<?xml version="1.0" encoding="utf-8"?>
<!-- Generator: Adobe Illustrator 27.9.0, SVG Export Plug-In . SVG Version: 6.00 Build 0)  -->
<svg version="1.1" id="Capa_1" xmlns="http://www.w3.org/2000/svg" xmlns:xlink="http://www.w3.org/1999/xlink" x="0px" y="0px"
	 viewBox="0 0 425 118" style="enable-background:new 0 0 425 118;" xml:space="preserve">
<style type="text/css">
	.st0{fill:#E8CDB3;}
</style>
<path class="st0" d="M33.2,54.5c2,7.5,2.6,15,1.7,22.7c0,0.4-0.3,0.6-0.7,0.6l-8.5-0.1c-0.5,0-0.7-0.2-0.7-0.7L25,40.4
	c0-0.7,0.6-1.3,1.4-1.3l7.5,0c0.6,0,1.1,0.3,1.4,0.9l9.1,17.8c0.3,0.6,0.6,0.6,0.9,0c3-5.8,6-11.5,8.8-17.2c1-2,7.4-1.6,9.1-1.4
	c0.9,0.2,1.6,1,1.6,1.9c0,11.4,0,22.8,0,34.4c0,3.8-6.9,2.6-9.3,2.2c-0.6-0.1-0.9-0.4-1-1c-0.8-7.8-0.1-15.3,2-22.7
	c0-0.2,0-0.4,0-0.5c-0.1-0.1-0.1-0.1-0.2-0.2c-0.2-0.1-0.3,0-0.3,0.1c-2,5.5-4.2,10.6-6.7,15.2c-1.1,2.1-5.8,2-7.3,1.1
	c-3.3-1.8-6.8-11.9-8.2-15.5c0-0.1-0.2-0.2-0.3-0.1C33.2,54.2,33.2,54.4,33.2,54.5z"/>
<path class="st0" d="M285.4,53.8c1.1,4.8,2.1,9.2,2.1,14c0,2.8,0,5.6,0,8.3c0,1.1-0.9,1.9-1.9,1.9l-6.4-0.1c-1,0-1.9-0.8-1.9-1.9
	c-0.1-11.4-0.1-22.4-0.1-33c0-1.2,0.2-2.2,0.7-3.3c0.2-0.4,0.4-0.6,0.9-0.6l6.8,0c1,0,2,0.6,2.5,1.5l8.7,17.2c0.2,0.5,0.5,0.5,0.7,0
	l9.4-17.8c0.2-0.3,0.5-0.5,0.8-0.6c2.9-0.6,5.7-0.6,8.6,0c0.5,0.1,0.8,0.5,0.8,1l0,35.4c0,0.8-0.6,1.5-1.3,1.7
	c-2.7,0.6-5.5,0.6-8.2,0.1c-0.3-0.1-0.6-0.3-0.6-0.7c-0.8-7.7-0.2-15.3,2-22.8c0.1-0.3,0-0.4-0.3-0.4c-0.2,0.1-0.3,0.1-0.3,0.3
	c-2,5.4-4.4,10.5-7.3,15.5c-0.2,0.4-0.6,0.6-1,0.6l-5.5,0.1c-0.4,0-0.7-0.2-0.9-0.5c-3.1-5.1-5.6-10.4-7.5-16.1
	c0-0.1-0.1-0.2-0.3-0.1C285.5,53.6,285.4,53.7,285.4,53.8z"/>
<path class="st0" d="M175.3,52.8c0,0.8,1.1,1.1,1.5,0.4l8.1-12.6c0.6-0.9,1.5-1.4,2.5-1.4h8.4c0.9,0,1.4,1,1,1.7l-10,16
	c-0.2,0.3-0.1,0.7,0.2,0.9c3.9,3.1,8.1,13.3,10.5,18c0.5,1-0.2,2.2-1.4,2.2l-9.4-0.4c-0.3,0-0.6-0.2-0.8-0.5
	c-1.7-3.2-5.8-14-9.6-14.2c-0.6,0-1,0.4-1,1v12.7c0,0.7-0.6,1.2-1.2,1.2l-7.7-0.1c-1,0-1.9-0.9-1.9-1.9V41.2c0-1.1,0.9-2,2-2h7
	c1,0,1.8,0.8,1.8,1.7L175.3,52.8z"/>
<path class="st0" d="M216.1,68.5h14.4c1.3,0,2.3,1.1,2.2,2.3l-0.2,5.4c0,1-0.9,1.8-1.9,1.8h-23.2c-1.8,0-2.8-0.9-2.8-2.8v-34
	c0-1.1,0.9-2,2-2h23.6c1.1,0,1.9,0.9,1.9,1.9l-0.1,5.8c0,0.9-0.7,1.6-1.6,1.6H216c-0.3,0-0.5,0.2-0.5,0.5v3.9c0,0.3,0.1,0.4,0.4,0.5
	l12.4,0.4c0.6,0,0.9,0.3,0.9,0.9l0.2,6.2c0,1.1-0.9,2-2,2h-11.4c-0.4,0-0.6,0.2-0.6,0.6v4.2C215.5,68.2,215.8,68.5,216.1,68.5z"/>
<path class="st0" d="M249,48.8l-9.1-0.4c-0.4,0-0.7-0.3-0.7-0.7l0.1-7.6c0-0.6,0.3-0.8,0.8-0.8h29.1c0.7,0,1.2,0.5,1.3,1.2
	c1.4,10.5-2.1,7.8-9.7,8.1c-0.4,0-0.6,0.2-0.6,0.7v26.7c0,1.2-1,2.2-2.2,2.1l-7.2-0.3c-0.7,0-1.2-0.6-1.2-1.2l-0.1-27.3
	C249.5,49,249.3,48.8,249,48.8z"/>
<path class="st0" d="M324.7,39.2h7.9c0.8,0,1.4,0.6,1.4,1.4v35.8c0,0.8-0.6,1.4-1.4,1.4h-7.9c-0.8,0-1.4-0.6-1.4-1.4V40.7
	C323.3,39.9,323.9,39.2,324.7,39.2z"/>
<path class="st0" d="M352,68.5l12.3,0c1.2,0,2,0.6,2.3,1.8c0.8,2.7,1,7.7-3.2,7.7c-6.7,0-13.5,0-20.5,0c-1.3,0-2.4-1.1-2.4-2.4
	l0-34.6c0-0.9,0.8-1.7,1.7-1.7h7.2c1,0,1.8,0.8,1.8,1.8v26.7C351.2,68.2,351.6,68.5,352,68.5z"/>
<path class="st0" d="M384.2,53.5c3.6,0.1,9.3-0.6,12.6,0.6c0.3,0.1,0.5,0.3,0.6,0.7c0.4,2.4,1.5,8-2.4,8.1c-3.5,0-7.1,0.1-10.6,0.3
	c-0.4,0-0.6,0.2-0.6,0.7v4.1c0,0.4,0.2,0.6,0.6,0.6h14.5c1.2,0,2.1,0.9,2.1,2.1v5c0,1.3-1.1,2.4-2.4,2.4l-24-0.1
	c-0.9,0-1.6-0.7-1.6-1.6V41.5c0-1.5,0.7-2.2,2.2-2.2c7.5,0,15.2,0,23,0c1.4,0,2.1,0.6,2.2,1.7c0.1,2.4,0.3,4.8-0.4,7
	c-0.1,0.3-0.4,0.5-0.7,0.5h-15c-0.3,0-0.5,0.2-0.5,0.5v4C383.8,53.3,383.9,53.5,384.2,53.5z"/>
<path class="st0" d="M86,44.5l2.4,3.2c0.5,0.7,0.4,1.6-0.2,2.2c-0.6,0.6-1.5,0.6-2.2,0l-2.2-2c-0.1-0.1-0.2-0.1-0.3-0.1
	c-3.5-0.3-6.9-0.4-10.3-0.2c-1.3,0-2.1-0.5-2.1-1.7c-0.1-1,0.7-1.8,1.7-1.8h12.3C85.4,44,85.8,44.2,86,44.5z"/>
<path class="st0" d="M97.5,62.3c-2.2-0.4-9.1-1.3-9.1-4c0-0.9,0.7-1.6,1.6-1.6l4.6,0c0.1,0,0.1,0,0.1-0.1c0-0.1,0-0.2,0-0.2
	c0,0,0,0-0.1,0l-8.1-1.2c-1.2-0.2-1.7-1.7-0.9-2.8c0.1-0.2,0.4-0.4,0.9-0.6c0.3-0.2,0.7-0.2,1.1-0.2c9.5,0,19,0,28.5,0
	c0.6,0,1.1,0.5,1.1,1.1l-0.1,1.6c0,0.4-0.3,0.7-0.7,0.7l-9.8,0.3c-0.2,0-0.2,0.1-0.2,0.2c0,0,0,0.1,0,0.1c0,0.1,0.1,0.1,0.2,0.1
	c2.4,0.2,4.8,0.5,7.1,1c2.4,0.5,2.6,1.7,0.8,3.5c-0.3,0.4-0.8,0.5-1.3,0.5c-2.6-0.2-5.2-0.3-7.8-0.3c-1.3,0-1.3,0.2,0,0.4
	c1.5,0.3,6.1,0.9,7.5,1.9c0.4,0.3,0.7,0.6,0.8,0.8c0.5,1.3-0.4,2.7-1.7,2.7H93.1c-1.3,0-2.1-1.3-1.5-2.5c1-2,4.1-1,5.9-1.2
	C98,62.5,98,62.5,97.5,62.3z"/>
<circle class="st0" cx="97.4" cy="70.1" r="2.9"/>
<circle class="st0" cx="107.7" cy="70.2" r="2.9"/>
<path class="st0" d="M150.6,63.9l6.2,11.6c0.5,0.9-0.1,2.1-1.2,2.2c-2.8,0.3-9.3,0.8-10.8-2c-1.9-3.5-4.2-11-8.8-10.8
	c-0.4,0-0.6,0.2-0.6,0.7V76c0,1.1-0.9,2-2,2l-7.2-0.1c-0.9,0-1.6-0.7-1.6-1.6v-35c0-1.1,0.9-2,2-2c6.6,0,17.5-1.2,22.9,1.5
	c8.2,4,8.8,17,1.2,22.4C150.5,63.3,150.4,63.6,150.6,63.9z M135.4,49v6.5c0,0.1,0.1,0.3,0.3,0.3h5.7c1.9,0,3.5-1.5,3.5-3.3v-0.3
	c0-1.9-1.6-3.4-3.5-3.4h-5.7C135.5,48.7,135.4,48.8,135.4,49z"/>
</svg>
